<svg id="wave" style="transform:rotate(0deg); transition: 0.3s" viewBox="0 0 1440 130" version="1.1" xmlns="http://www.w3.org/2000/svg"><path style="transform:translate(0, 0px); opacity:1" fill="white" d="M0,13L80,23.8C160,35,320,56,480,62.8C640,69,800,61,960,47.7C1120,35,1280,17,1440,28.2C1600,39,1760,78,1920,88.8C2080,100,2240,82,2400,65C2560,48,2720,30,2880,26C3040,22,3200,30,3360,34.7C3520,39,3680,39,3840,34.7C4000,30,4160,22,4320,17.3C4480,13,4640,13,4800,19.5C4960,26,5120,39,5280,39C5440,39,5600,26,5760,19.5C5920,13,6080,13,6240,10.8C6400,9,6560,4,6720,4.3C6880,4,7040,9,7200,13C7360,17,7520,22,7680,30.3C7840,39,8000,52,8160,54.2C8320,56,8480,48,8640,43.3C8800,39,8960,39,9120,52C9280,65,9440,91,9600,99.7C9760,108,9920,100,10080,88.8C10240,78,10400,65,10560,65C10720,65,10880,78,11040,69.3C11200,61,11360,30,11440,15.2L11520,0L11520,130L11440,130C11360,130,11200,130,11040,130C10880,130,10720,130,10560,130C10400,130,10240,130,10080,130C9920,130,9760,130,9600,130C9440,130,9280,130,9120,130C8960,130,8800,130,8640,130C8480,130,8320,130,8160,130C8000,130,7840,130,7680,130C7520,130,7360,130,7200,130C7040,130,6880,130,6720,130C6560,130,6400,130,6240,130C6080,130,5920,130,5760,130C5600,130,5440,130,5280,130C5120,130,4960,130,4800,130C4640,130,4480,130,4320,130C4160,130,4000,130,3840,130C3680,130,3520,130,3360,130C3200,130,3040,130,2880,130C2720,130,2560,130,2400,130C2240,130,2080,130,1920,130C1760,130,1600,130,1440,130C1280,130,1120,130,960,130C800,130,640,130,480,130C320,130,160,130,80,130L0,130Z"/></svg>